<?xml version="1.0" encoding="UTF-8" standalone="no"?>
<!-- Created with Inkscape (http://www.inkscape.org/) -->

<svg
   width="550.82275mm"
   height="74.967529mm"
   viewBox="0 0 550.82275 74.967529"
   version="1.1"
   id="svg1063"
   inkscape:version="1.2.2 (b0a84865, 2022-12-01)"
   sodipodi:docname="Screenshot 2023-05-22 at 7.45.23 PM_adobe_express.svg"
   xmlns:inkscape="http://www.inkscape.org/namespaces/inkscape"
   xmlns:sodipodi="http://sodipodi.sourceforge.net/DTD/sodipodi-0.dtd"
   xmlns="http://www.w3.org/2000/svg"
   xmlns:svg="http://www.w3.org/2000/svg">
  <sodipodi:namedview
     id="namedview1065"
     pagecolor="#ffffff"
     bordercolor="#000000"
     borderopacity="0.25"
     inkscape:showpageshadow="2"
     inkscape:pageopacity="0.0"
     inkscape:pagecheckerboard="0"
     inkscape:deskcolor="#d1d1d1"
     inkscape:document-units="mm"
     showgrid="false"
     inkscape:zoom="0.33530644"
     inkscape:cx="493.57835"
     inkscape:cy="-217.7113"
     inkscape:window-width="1512"
     inkscape:window-height="916"
     inkscape:window-x="0"
     inkscape:window-y="38"
     inkscape:window-maximized="1"
     inkscape:current-layer="layer1" />
  <defs
     id="defs1060" />
  <g
     inkscape:label="Layer 1"
     inkscape:groupmode="layer"
     id="layer1"
     transform="translate(205.89461,-68.446543)">
    <path
       fill="#4c4c4c"
       opacity="1"
       stroke="none"
       d="m -2.9580284,92.517129 c 0.095115,0.811967 -0.083733,1.124908 -0.893908,1.129131 -2.1262737,0.01106 -2.5352454,0.48273 -2.5367959,2.663362 -0.00437,6.128108 -0.00185,12.256218 -0.00159,18.384328 7.94e-5,3.36531 0.015134,3.38149 3.3539615,3.59225 0,1.77992 0,3.5671 0,5.4487 -5.111398,0 -10.2367802,0 -15.4361852,0 0,-1.80005 0,-3.58397 0,-5.5092 0.497951,0 0.973778,0.0478 1.436605,-0.01 1.115239,-0.13806 1.933955,-0.7266 1.945085,-1.90205 0.04373,-4.61971 0.01791,-9.24007 0.01791,-13.86019 -0.112993,-0.042 -0.225986,-0.0839 -0.338963,-0.12591 -0.525743,1.18112 -1.064763,2.35654 -1.574485,3.54454 -1.080296,2.51793 -2.110319,5.05846 -3.252645,7.54765 -0.180189,0.39266 -0.822105,0.76043 -1.281124,0.80197 -1.224406,0.11084 -2.470599,0.1 -3.696753,-0.001 -0.360508,-0.0297 -0.837287,-0.45224 -0.999117,-0.81233 -1.646086,-3.6633 -3.23801,-7.35094 -4.856905,-11.05874 -0.138314,0.11469 -0.243703,0.16117 -0.24388,0.20803 -0.01741,4.58304 -0.0495,9.16623 -0.02297,13.74908 0.008,1.38069 0.641578,1.89516 2.07405,1.91795 0.432224,0.007 0.864643,0.001 1.364613,0.001 0,1.87346 0,3.65877 0,5.5233 -5.154563,0 -10.284497,0 -15.487251,0 0,-1.80656 0,-3.59126 0,-5.52371 0.481108,0 0.95059,0.0244 1.416693,-0.005 1.166403,-0.073 1.992934,-0.82661 1.997554,-1.98763 0.02703,-6.78926 0.04893,-13.57894 -0.0065,-20.367843 -0.01429,-1.749375 -0.719177,-2.142826 -3.397451,-2.29797 0,-1.779468 0,-3.566385 0,-5.547124 1.143161,0 2.311662,0 3.480165,0 2.512959,0 5.026969,0.04091 7.538315,-0.02265 0.854453,-0.02164 1.242399,0.308652 1.558721,1.042344 2.375696,5.510265 4.782137,11.007263 7.181104,16.507493 0.103756,0.23792 0.228087,0.46687 0.437536,0.89236 1.132861,-2.56178 2.20707,-4.95645 3.252404,-7.363636 1.283626,-2.955874 2.741676,-5.856957 3.744087,-8.906716 0.68082,-2.071375 1.881119,-2.25067 3.677277,-2.182262 3.1219514,0.11892 6.2517023,0.03306 9.5504849,0.03306 0,1.492599 0,2.931282 -1.59e-5,4.496575 z"
       id="path8"
       style="stroke-width:0.264583" />
    <path
       fill="#4b4b4b"
       opacity="1"
       stroke="none"
       d="m 40.752254,103.419 c -0.0089,4.01161 -0.02252,8.02322 -0.02498,12.03483 -0.0013,2.29406 0.446775,2.73087 2.788184,2.77462 0.172051,0.003 0.343778,0.0229 0.605324,0.0411 0,1.8027 0,3.58576 0,5.46431 -5.112186,0 -10.249794,0 -15.48694,0 0,-1.76844 0,-3.58598 0,-5.50735 0.368501,0 0.711067,0.007 1.053277,-0.001 1.564682,-0.0373 2.313635,-0.76493 2.319692,-2.34615 0.01672,-4.36462 0.0064,-8.72934 0.0066,-13.09402 1.14e-4,-1.89577 -0.03118,-3.792171 0.0072,-5.687162 0.06095,-3.009336 -0.662733,-3.465978 -3.485171,-3.520943 0,-0.898167 0,-1.804008 0,-2.709846 0,-0.878573 0,-1.757143 0,-2.736501 0.370941,-0.03945 0.701025,-0.10182 1.031672,-0.104897 1.278427,-0.01193 2.557806,-0.03325 3.835376,0.0019 1.736749,0.04776 3.761383,-0.38124 5.125416,0.369787 1.319056,0.726263 1.972407,2.67943 2.891731,4.110668 3.462645,5.390763 6.913145,10.789324 10.374495,16.180934 0.173199,0.26975 0.405434,0.50159 0.805151,0.98873 0,-4.79003 0.112834,-9.2707 -0.05232,-13.741104 -0.07183,-1.944359 -0.554826,-2.271453 -2.528237,-2.313683 -0.257413,-0.0055 -0.515038,-7.94e-4 -0.856215,-7.94e-4 0,-1.860836 0,-3.643688 0,-5.514546 5.13756,0 10.276427,0 15.507848,0 0,1.750377 0,3.535566 0,5.515401 -0.466249,0 -0.97417,-0.03261 -1.476587,0.0063 -1.380675,0.106807 -1.863698,0.601539 -1.901243,1.97987 -0.03119,1.145447 -0.0098,2.292357 -0.0098,3.438622 0,7.715354 -2.12e-4,15.430694 -2.12e-4,23.146034 0,0.47911 0,0.95821 0,1.6187 -2.175722,0 -4.271851,0.0344 -6.364182,-0.0387 -0.298981,-0.0105 -0.641675,-0.50159 -0.859766,-0.83793 -4.0982,-6.3202 -8.180993,-12.65039 -12.265128,-18.97971 -0.1856,-0.2876 -0.353467,-0.58666 -0.583554,-1.05388 -0.191916,-0.24619 -0.329843,-0.31889 -0.467786,-0.3916 0.0034,0.30276 0.0067,0.60551 0.01011,0.90827 z"
       id="path10"
       style="stroke-width:0.264583" />
    <path
       fill="#4b4b4b"
       opacity="1"
       stroke="none"
       d="m 279.61665,97.580119 c 0.0622,3.724981 -1.73307,6.225101 -4.83772,8.048601 2.05901,0.92668 3.78026,2.09635 4.65452,4.12022 2.08151,4.81863 0.3293,11.64928 -5.60895,13.47682 -1.14118,0.35119 -2.37263,0.56061 -3.56455,0.57027 -6.78537,0.055 -13.57138,0.0306 -20.35715,0.0283 -0.25315,-8e-5 -0.5063,-0.0493 -0.81671,-0.0816 0,-1.84314 0,-3.62944 0,-5.40763 3.51896,-0.42592 3.51885,-0.42592 3.51885,-4.05842 -2e-5,-5.64015 2.4e-4,-11.2803 1.1e-4,-16.920457 -1.1e-4,-3.356835 -0.12364,-3.493786 -3.51015,-3.822271 0,-1.776902 0,-3.562017 0,-5.426623 0.36981,-0.03061 0.70715,-0.08314 1.04444,-0.0828 6.78561,0.0067 13.57172,-0.02945 20.35657,0.04687 5.19734,0.05847 9.38101,3.542977 9.12074,9.50868 m -12.42343,11.191861 c -1.92085,0 -3.8417,0 -5.78549,0 0,3.2112 0,6.30013 0,9.43543 2.15231,0 4.21519,0.0569 6.2733,-0.0179 1.65894,-0.0603 2.9463,-0.84683 3.60638,-2.4318 1.44957,-3.48079 -0.16592,-6.37967 -4.09419,-6.98569 m -5.87518,-6.56679 c 0.23839,0.2649 0.47059,0.75213 0.7162,0.75899 1.71426,0.0478 3.43628,0.0711 5.14628,-0.0418 2.37715,-0.1569 3.84315,-1.8866 3.92967,-4.461734 0.0892,-2.657801 -1.1593,-4.496448 -3.55669,-4.739796 -2.03234,-0.206301 -4.10226,-0.04254 -6.23612,-0.04254 0,2.818255 0,5.540616 0,8.52686 z"
       id="path12"
       style="stroke-width:0.264583" />
    <path
       fill="#4b4b4b"
       opacity="1"
       stroke="none"
       d="m 193.09705,123.82773 c -2.8182,1e-5 -5.50415,1e-5 -8.29212,1e-5 0,-1.85173 0,-3.63096 0,-5.52976 0.39032,-0.0226 0.81053,-0.0465 1.23066,-0.0714 1.2817,-0.0761 2.24809,-0.98269 2.25129,-2.23224 0.0172,-6.70053 0.0175,-13.40115 0,-20.101677 -0.003,-1.250923 -0.85289,-2.077029 -2.22044,-2.258718 -0.38693,-0.05141 -0.78647,-0.0079 -1.2713,-0.0079 0,-1.850435 0,-3.630437 0,-5.511056 0.32928,-0.03096 0.66329,-0.0895 0.99735,-0.08979 6.03933,-0.0052 12.07942,-0.05617 18.11756,0.029 1.82059,0.02569 3.689,0.235215 5.4429,0.705787 4.35094,1.167386 6.96727,4.064116 7.48509,8.575759 0.44251,3.855175 -0.23154,7.476125 -3.38487,10.136375 -1.1557,0.97499 -2.55688,1.65899 -3.87789,2.49589 1.21303,2.15888 2.44988,4.40881 3.73652,6.62991 0.65879,1.13714 1.6365,1.78195 3.0262,1.63504 0.38222,-0.0404 0.77232,-0.006 1.22291,-0.006 0,1.89983 0,3.68356 0,5.53406 -4.54353,0 -9.0178,0 -13.56403,0 0,-1.82131 0,-3.60691 0,-5.4938 0.55571,0 1.10511,0 1.81407,0 -1.32755,-2.39832 -2.5662,-4.65607 -3.83488,-6.89679 -0.12535,-0.22132 -0.43053,-0.47482 -0.65923,-0.48176 -1.44182,-0.0439 -2.88563,-0.0222 -4.449,-0.0222 0,2.05669 -0.0419,3.98428 0.0177,5.9087 0.0296,0.95309 0.53912,1.55637 1.61944,1.45925 0.34036,-0.0306 0.68868,0.0271 1.09537,0.0476 0,1.83614 0,3.62003 0,5.54591 -2.16384,0 -4.26715,0 -6.50269,0 m 14.46355,-28.354132 c -0.87844,-0.535511 -1.71466,-1.428964 -2.64329,-1.538438 -2.63451,-0.310576 -5.3068,-0.300725 -7.99005,-0.418169 0,4.060987 0,7.862689 0,11.730149 2.32212,0 4.56473,0.0817 6.79866,-0.0225 2.33214,-0.10874 3.74674,-1.25622 4.33038,-3.39397 0.57049,-2.089384 0.5511,-4.173772 -0.4957,-6.357076 z"
       id="path14"
       style="stroke-width:0.264583" />
    <path
       fill="#4c4c4c"
       opacity="1"
       stroke="none"
       d="m 105.50648,106.05185 c -0.17762,4.50801 -0.89231,8.7138 -3.66956,12.32637 -2.468616,3.21105 -5.75519,5.12713 -9.710155,5.30835 -5.940214,0.2722 -11.900059,0.11601 -17.85157,0.14147 -0.480034,0.002 -0.960041,2.6e-4 -1.534477,2.6e-4 0,-1.85286 0,-3.635 0,-5.44778 0.03127,-0.0242 0.100303,-0.1238 0.164967,-0.12103 2.912004,0.1243 3.295412,-1.05294 3.271705,-3.5408 -0.05503,-5.77508 -0.0172,-11.55104 -0.0172,-17.326639 0,-0.04409 0,-0.08821 -2.11e-4,-0.132252 -0.115941,-4.029599 -0.620501,-3.464306 -3.43625,-3.729035 0,-1.774489 0,-3.558045 0,-5.416127 0.207751,-0.03092 0.4141,-0.08855 0.620448,-0.08845 5.863643,0.0029 11.728344,-0.05379 17.590744,0.03562 7.713609,0.117637 12.993449,4.854599 14.046649,12.502763 0.24469,1.77691 0.35338,3.57257 0.52486,5.48728 M 84.837785,93.789201 c 0,8.098299 0,16.196609 0,24.437619 1.343131,0 2.654273,0.002 3.965363,-2.6e-4 3.843893,-0.007 6.138122,-1.60987 7.198519,-5.32618 1.295215,-4.53926 1.242589,-9.1489 0.06739,-13.702569 -0.961522,-3.725378 -3.203628,-5.414592 -7.050802,-5.55352 -1.319768,-0.04766 -2.642817,-0.0024 -4.180469,0.145024 z"
       id="path16"
       style="stroke-width:0.264583" />
    <path
       fill="#4c4c4c"
       opacity="1"
       stroke="none"
       d="m 137.73998,97.589536 c -2.84803,0.0013 -5.56893,0.0013 -8.36417,0.0013 0,-1.242068 0,-2.374863 0,-3.57256 -2.46851,-1.405269 -5.07669,-1.348547 -7.58714,-0.591995 -2.48758,0.749654 -2.82498,5.004144 -0.43719,6.500175 2.37627,1.488844 5.06526,2.469754 7.56734,3.769174 2.42851,1.26122 4.99957,2.3771 7.14396,4.02932 4.42392,3.40851 3.8049,11.83324 -2.13108,14.96342 -3.12896,1.64998 -6.50021,2.3815 -9.94675,2.09369 -4.00931,-0.33482 -7.97404,-1.0905 -11.4767,-3.38208 -1.08921,-0.71258 -1.83605,-1.3197 -1.69055,-2.7812 0.1556,-1.56267 0.0351,-3.15283 0.0351,-4.80991 2.97582,0 5.85375,0 8.86029,0 0,1.09335 -0.0327,2.14327 0.0188,3.18904 0.0164,0.3357 0.16243,0.82802 0.40709,0.96356 1.86658,1.03422 6.53629,1.67578 8.51889,0.12678 1.89183,-1.47811 2.29857,-4.24203 0.36045,-5.77732 -1.44751,-1.14661 -3.16683,-2.01487 -4.87458,-2.7544 -3.41262,-1.47783 -6.87327,-2.86686 -9.79583,-5.21479 -1.94619,-1.56353 -3.0326,-3.67865 -3.17323,-6.229667 -0.11813,-2.142667 0.0661,-4.192032 1.32797,-6.044084 1.37753,-2.021895 3.33942,-3.131986 5.61248,-3.796254 5.75916,-1.683063 11.3997,-1.479529 16.83774,1.196509 1.00914,0.496588 1.90153,1.241367 2.81281,1.918708 0.25186,0.18723 0.52821,0.540091 0.53618,0.824164 0.0469,1.673074 0.027,3.348455 -0.005,5.022392 -0.003,0.120851 -0.28006,0.236421 -0.55687,0.355883 z"
       id="path18"
       style="stroke-width:0.264583" />
    <path
       fill="#4b4b4b"
       opacity="1"
       stroke="none"
       d="m 314.02587,96.491306 c -1.88648,0 -3.77293,0 -5.64443,0 -0.50703,-2.211993 -0.38757,-2.879968 -3.4089,-2.870086 -1.44756,0.0047 -2.89512,7.94e-4 -4.42629,7.94e-4 0,3.180765 0,6.279808 0,9.487236 2.41035,0 4.81534,0 7.29954,0 0,1.88538 0,3.66538 0,5.55826 -2.40311,0 -4.8056,0 -7.29528,0 0,3.20943 0,6.30862 0,9.55547 1.96212,0 3.94049,0.11764 5.89735,-0.0369 1.58909,-0.12549 1.72919,-1.53999 1.83274,-2.85034 2.6198,0 5.16025,0 7.79079,0 0,2.79451 0,5.58171 0,8.43079 -9.27592,0 -18.51136,0 -27.82943,0 0,-1.81938 0,-3.60384 0,-5.38039 0.0956,-0.0523 0.16695,-0.12371 0.24196,-0.12777 2.9549,-0.15977 3.26681,-0.4835 3.26705,-3.4088 0,-5.77262 2.4e-4,-11.54525 0,-17.31787 2.1e-4,-3.436096 -0.14269,-3.602217 -3.52459,-4.020378 0,-1.777299 0,-3.562702 0,-5.480553 8.38118,0 16.6964,0 25.11552,0.117637 -0.19275,0.258349 -0.50681,0.371393 -0.78267,0.545139 -0.72615,0.457433 -1.16697,1.034883 -0.80034,1.962679 0.76677,1.940531 1.51218,3.889547 2.26632,5.835076 z"
       id="path20"
       style="stroke-width:0.264583" />
    <path
       fill="#4c4c4c"
       opacity="1"
       stroke="none"
       d="m 174.54915,89.404942 c 1.63195,0.618468 2.30847,1.648089 2.08093,3.362261 -0.16106,1.213136 -0.0593,2.465742 -0.0212,3.699055 0.0236,0.763656 -0.18939,1.114581 -1.03939,1.099402 -2.55328,-0.04558 -5.10789,-0.0164 -7.8059,-0.0164 0,-1.385242 0,-2.724317 0,-4.204846 -3.26609,-0.3155 -6.42278,-1.005954 -9.28412,1.04136 -2.13455,1.527273 -3.20812,3.728609 -3.78822,6.222516 -0.91893,3.95108 -0.97113,7.88637 0.30249,11.76899 1.34512,4.10052 4.78079,6.52913 9.09188,6.65778 3.08552,0.0921 5.99969,-0.41966 8.66299,-2.02697 0.79909,-0.48224 1.26463,-0.40527 1.72926,0.47468 0.66731,1.26371 1.48916,2.44586 2.27717,3.71457 -2.65811,2.06035 -5.60787,3.13089 -8.90093,3.32376 -0.90948,0.0533 -1.81338,0.31191 -2.71875,0.30598 -5.20645,-0.0341 -10.13915,-1.08368 -14.22649,-4.53191 -2.51825,-2.12451 -4.06953,-5.01467 -4.81177,-8.15723 -1.10606,-4.68284 -1.07032,-9.47479 0.5021,-14.046158 1.8886,-5.490627 5.65957,-9.170693 11.53025,-10.279321 5.5757,-1.052925 11.06956,-0.906688 16.41957,1.592498 z"
       id="path22"
       style="stroke-width:0.264583" />
    <path
       fill="#4b4b4b"
       opacity="1"
       stroke="none"
       d="m 20.645697,93.037131 c -0.431499,0.279053 -0.854679,0.540528 -1.291119,0.564994 -1.508451,0.08457 -2.177257,0.675629 -2.180842,2.194367 -0.0159,6.739608 -0.01688,13.479318 0.0011,20.218918 0.0042,1.59973 0.653351,2.18697 2.278364,2.21089 0.345167,0.005 0.690477,7.9e-4 1.115356,7.9e-4 0,1.86093 0,3.64309 0,5.5133 -5.134668,0 -10.268932,0 -15.4970849,0 0,-1.77244 0,-3.59144 0,-5.51326 0.3222995,0 0.6195854,0.004 0.9167257,-8e-4 1.7526714,-0.0287 2.4584236,-0.7156 2.4611224,-2.45858 0.00892,-5.77054 0.00355,-11.5411 0.00357,-17.311648 0,-0.836949 0.033023,-1.675577 -0.00839,-2.510491 -0.078404,-1.580645 -0.7255536,-2.21691 -2.3036397,-2.320248 -0.3427254,-0.02244 -0.6881839,-0.0033 -1.0973805,-0.0033 0,-1.867183 0,-3.653337 0,-5.520359 5.150476,0 10.280316,0 15.604553,0 0,1.590424 0,3.199773 -0.0021,4.935358 z"
       id="path24"
       style="stroke-width:0.264583" />
    <path
       fill="#4b4b4b"
       opacity="1"
       stroke="none"
       d="m 240.43543,118.22717 c 0.33057,0.20036 0.71969,0.39471 0.7262,0.60106 0.0507,1.61769 0.0281,3.23768 0.0281,4.92739 -5.26466,0 -10.40215,0 -15.63804,0 0,-1.78402 0,-3.56402 0,-5.4479 0.22069,-0.0251 0.46598,-0.0722 0.7122,-0.0778 2.0597,-0.0462 2.71801,-0.71142 2.72336,-2.80938 0.008,-3.30444 0.003,-6.60892 0.003,-9.91338 3e-5,-2.95199 0.003,-5.903979 0,-8.855962 -0.003,-2.433555 -0.469,-2.910046 -2.93087,-3.0328 -0.1665,-0.0083 -0.3312,-0.0528 -0.52742,-0.0856 0,-1.828667 0,-3.613393 0,-5.454583 5.21613,0 10.35614,0 15.57915,0 0,1.822481 0,3.605569 0,5.38327 -0.0909,0.05066 -0.16164,0.122886 -0.23617,0.126971 -3.08467,0.168796 -3.21201,0.300223 -3.21257,3.403973 0,6.212391 -0.009,12.424811 0.007,18.637161 0.006,2.13959 0.49808,2.5929 2.76783,2.59755 z"
       id="path26"
       style="stroke-width:0.264583" />
    <path
       fill="#b365f3"
       opacity="1"
       stroke="none"
       d="m -135.5067,74.584915 c 2.44534,-5.699773 9.48341,-7.696533 14.74921,-4.859166 4.10962,2.214391 5.89518,5.805152 5.85953,10.408457 -0.0317,4.087768 -0.007,8.175969 -0.007,12.398322 4.83921,0 9.57393,0 14.42977,0 0,0.843182 0,1.553774 0,2.444385 -0.78292,0 -1.56052,5.29e-4 -2.33812,-8.2e-5 -3.6556,-0.0026 -7.31119,-0.004 -10.96679,-0.0094 -0.57639,-7.94e-4 -1.21044,-0.103394 -1.26323,0.912598 -0.80751,-0.238093 -1.50388,-0.588095 -2.21436,-1.061249 -0.0171,-0.386927 -0.0195,-0.650695 -0.023,-0.914448 -0.0704,-5.270148 0.0193,-10.548831 -0.2607,-15.807827 -0.23471,-4.40913 -4.92167,-7.779411 -9.29226,-7.127221 -3.26898,0.487809 -5.4979,2.247939 -6.97017,5.172479 -0.6256,-0.525727 -1.16441,-1.041281 -1.70322,-1.556842 z"
       id="path28"
       style="stroke-width:0.264583" />
    <path
       fill="#d1a4f7"
       opacity="1"
       stroke="none"
       d="m -120.70138,142.02855 c -3.27147,2.2316 -9.27525,1.7029 -12.08709,-1.12108 -1.07104,-1.07567 -2.02299,-2.26992 -3.09882,-3.489 -2.72353,0.16446 -5.46924,-0.47861 -7.80759,-2.18671 -2.40657,-1.75795 -4.1421,-4.08835 -4.79527,-7.10525 -0.66983,-3.09381 -0.48722,-6.04378 1.28485,-8.77336 0.0896,-0.13805 0.10418,-0.32481 0.093,-0.60265 -0.0607,-0.11376 -0.0818,-0.23835 0.0256,-0.24598 1.54141,-0.2349 0.79722,-1.36785 1.06721,-2.08237 0.52247,-0.008 0.96102,-0.0484 1.49225,-0.0506 0.51373,0.57379 0.93477,1.10976 1.30978,1.71957 -2.46176,2.61167 -3.61285,5.5056 -2.92457,9.08422 0.90397,4.69996 5.78542,8.43657 10.46959,7.63729 1.38546,-0.23642 1.85807,0.17859 2.33779,1.29833 1.1013,2.5707 3.1489,4.00459 5.83367,4.68005 2.05953,0.51815 3.88422,-0.23289 5.75549,-0.72827 0.34703,0.71767 0.69555,1.34172 1.04408,1.96577 z"
       id="path34"
       style="stroke-width:0.264583" />
    <path
       fill="#bb75f4"
       opacity="1"
       stroke="none"
       d="m -84.376735,133.63165 c -2.408452,2.20167 -5.244576,1.5292 -6.301264,-1.40718 -0.402299,-1.11794 0.213402,-2.98621 1.295612,-3.69903 0.7157,-0.47141 1.060593,-1.00104 0.983935,-1.9088 -0.09968,-1.18041 -0.150299,-2.3917 0.0013,-3.56076 0.278117,-2.1457 -1.664295,-3.79619 -3.732321,-3.79361 -3.566311,0.004 -7.132632,-8e-4 -10.698937,-0.007 -0.34314,-5.3e-4 -0.68621,-0.0385 -1.11245,-0.064 0,-0.7904 0,-1.5181 0,-2.25754 0.0552,-0.0509 0.119,-0.16102 0.18166,-0.16036 4.34829,0.0451 8.705229,-0.0491 13.041493,0.20661 2.692337,0.15876 4.753314,2.88198 4.905873,5.85508 0.04506,0.87834 0.03849,1.76147 0.01021,2.64094 -0.04385,1.36331 -0.09449,2.56218 1.416571,3.44651 1.222335,0.71535 1.097124,3.08626 0.0084,4.70956 m -2.226551,-3.38218 c -0.518371,0.24477 -1.183052,0.37719 -1.493578,0.78158 -0.156064,0.20322 0.215837,1.1424 0.560544,1.30777 0.352822,0.16925 1.12464,-0.0492 1.426284,-0.36871 0.497718,-0.52718 0.459203,-1.20749 -0.49325,-1.72064 z"
       id="path38"
       style="stroke-width:0.264583" />
    <path
       fill="#af5df2"
       opacity="1"
       stroke="none"
       d="m -101.64622,99.984819 c 4.707179,-0.01606 9.414392,-0.02521 14.121501,-0.05407 0.93608,-0.0057 1.755273,0.03613 2.424378,-1.052624 0.908211,-1.477833 3.102101,-1.786342 4.58516,-1.00027 1.495912,0.792892 2.250347,2.545355 1.778992,4.132395 -0.553186,1.86255 -2.035744,2.9848 -3.971938,2.63413 -0.891014,-0.16139 -1.851599,-0.8215 -2.433185,-1.53765 -0.492419,-0.60632 -0.898419,-0.79578 -1.59802,-0.79435 -4.531603,0.009 -9.063246,-0.008 -13.721458,-0.12832 -0.47953,-0.80746 -0.83248,-1.50335 -1.18543,-2.199236 m 18.412059,1.740506 c 0.53313,0.54049 1.16682,0.93295 1.769546,0.2409 0.272005,-0.3123 0.428414,-1.07358 0.235159,-1.35545 -0.246761,-0.3599 -1.135345,-0.735842 -1.329343,-0.58104 -0.405085,0.32324 -0.535972,0.99012 -0.675362,1.69559 z"
       id="path68"
       style="stroke-width:0.264583" />
    <path
       fill="#a950f1"
       opacity="1"
       stroke="none"
       d="m -91.588398,92.631197 c 2.372124,-0.662573 3.18753,-1.750127 3.169742,-4.215424 -0.007,-0.967454 0.0046,-1.935057 -0.0048,-2.902479 -0.0081,-0.840034 0.04339,-1.495436 -0.946769,-2.141326 -1.068668,-0.6971 -1.723917,-2.137862 -1.362715,-3.572409 0.368961,-1.465366 1.265613,-2.588964 2.89652,-2.813135 1.53932,-0.21159 2.86525,0.204761 3.786278,1.54209 1.114491,1.618231 0.616352,3.757644 -1.087057,5.092678 -0.338148,0.265028 -0.603588,0.804887 -0.640397,1.240179 -0.143582,1.697434 -0.05228,3.422086 -0.289777,5.102484 -0.349107,2.470052 -1.800884,4.105926 -4.361895,4.70199 -0.457467,-0.726361 -0.808299,-1.380503 -1.159126,-2.034648 m 3.461716,-12.517872 c -0.174773,0.856287 0.0435,1.590771 1.00933,1.529226 0.40486,-0.0258 0.8867,-0.646779 1.098954,-1.105673 0.100979,-0.21831 -0.317463,-0.964451 -0.55318,-0.9902 -0.469924,-0.05132 -0.976143,0.229788 -1.555104,0.566647 z"
       id="path74"
       style="stroke-width:0.264583" />
    <path
       fill="#bb75f4"
       opacity="1"
       stroke="none"
       d="m -117.24324,94.941932 c 0.69638,0.349997 1.39274,0.699998 2.17849,1.049065 0.0894,1.261462 0.0894,2.523869 0.0894,3.869902 0.90027,0.05237 1.58794,0.09237 2.37769,0.138316 0,0.741095 0,1.455075 0,2.254595 -0.72256,0.0461 -1.40984,0.0899 -2.20165,0.14042 0,2.33182 0,4.6339 0,7.14867 2.63764,0 5.25994,0 8.0039,0.11767 0.47387,0.81286 0.8261,1.50805 1.17833,2.20324 -2.70174,0.012 -5.40369,0.01 -8.10501,0.0503 -0.42952,0.006 -0.8562,0.20318 -1.41403,0.40434 -0.78949,-0.26239 -1.44917,-0.6172 -2.12156,-1.09532 -0.004,-5.50927 0.005,-10.89523 0.0145,-16.281198 z"
       id="path76"
       style="stroke-width:0.264583" />
    <path
       fill="#c183f5"
       opacity="1"
       stroke="none"
       d="m -117.245,111.34645 c 0.65968,0.3548 1.31936,0.70961 2.08456,1.07066 0.18886,1.4417 0.2722,2.87715 0.35929,4.37738 2.77723,0 5.51198,0 8.32069,0 0,0.78878 0,1.52074 0,2.42877 -2.74779,0 -5.49186,0 -8.57839,0 0,3.14357 0,6.11597 -0.11045,9.20729 -0.76569,-0.14745 -1.42092,-0.41379 -2.08714,-0.80357 -0.004,-5.50912 0.004,-10.89483 0.0114,-16.28053 z"
       id="path90"
       style="stroke-width:0.264583" />
    <path
       fill="#cb97f6"
       opacity="1"
       stroke="none"
       d="m -146.1034,116.39053 c -0.18606,0.74614 0.55813,1.87909 -1.06183,2.07666 -0.91296,-0.63311 -1.63991,-1.23652 -2.36686,-1.83994 -2.06414,-2.43489 -3.48642,-5.14104 -4.01069,-8.35308 -0.63091,-3.86542 0.24507,-7.33545 2.38475,-10.573417 0.71092,0.421437 1.29063,0.814428 1.86464,1.301592 -1.88102,3.165455 -2.25292,6.470965 -1.5206,10.040735 0.82616,2.54264 1.89204,4.83236 3.96422,6.60705 0.27304,0.29596 0.50971,0.51817 0.74637,0.7404 z"
       id="path92"
       style="stroke-width:0.264583" />
    <path
       fill="#b365f3"
       opacity="1"
       stroke="none"
       d="m -78.807259,109.51529 c 0.479912,2.68675 -0.625001,4.46165 -3.158641,4.92629 -1.506061,0.2762 -2.46218,-0.8333 -3.439657,-1.79064 -0.343421,-0.33635 -0.849995,-0.69265 -1.293752,-0.70825 -2.099855,-0.0738 -4.203739,-0.0329 -6.376442,-0.0329 0,-0.84646 0,-1.5272 0,-2.38576 2.164257,0 4.267269,0.0393 6.366722,-0.0296 0.481875,-0.0158 1.130818,-0.27337 1.397952,-0.64114 1.845059,-2.54021 5.014801,-2.28886 6.503818,0.66205 m -2.509731,0.44729 c -1.089089,-0.59305 -1.934798,-0.40129 -2.011675,0.52814 -0.03318,0.40115 0.209299,0.96955 0.520941,1.20965 0.255029,0.19646 1.025525,0.17666 1.166698,-0.0262 0.293781,-0.42215 0.322027,-1.0291 0.324036,-1.71158 z"
       id="path94"
       style="stroke-width:0.264583" />
    <path
       fill="#bb75f4"
       opacity="1"
       stroke="none"
       d="m -135.59355,74.632466 c 0.62565,0.468011 1.16447,0.983565 1.79486,1.612894 -0.65827,2.272819 -0.6251,4.390049 0.28998,6.515235 0.13415,0.31156 -0.10373,0.944235 -0.37711,1.228916 -0.32943,0.34304 -0.88067,0.47308 -1.35201,0.703201 -1.39199,-2.206736 -1.56418,-4.52579 -1.3762,-6.908114 -0.24183,-0.01601 -0.3844,-0.06475 -0.49552,-0.02516 -0.28758,0.10241 -0.56402,0.238067 -0.84013,0.370406 -2.71522,1.301366 -4.39087,3.527393 -5.62369,6.217298 -0.7277,-0.354936 -1.36471,-0.700143 -2.00172,-1.045358 1.56824,-4.859322 5.19556,-7.355559 9.98154,-8.669303 z"
       id="path100"
       style="stroke-width:0.264583" />
    <path
       fill="#c183f5"
       opacity="1"
       stroke="none"
       d="m -145.65104,83.36542 c 0.71296,0.281564 1.34997,0.626771 2.08391,1.089435 -0.73821,2.844167 -0.49804,5.493295 0.71755,8.053223 0.28614,0.602604 0.21797,0.964435 -0.4117,1.2504 -2.50085,1.135753 -4.44861,2.928617 -6.0264,5.149694 -0.57972,-0.392991 -1.15943,-0.785982 -1.78984,-1.250133 0.91062,-2.029042 2.44264,-3.481401 4.20811,-4.675119 0.77882,-0.526608 1.14103,-0.907859 0.86272,-1.979885 -0.65388,-2.518597 -0.5614,-5.076782 0.35565,-7.637615 z"
       id="path102"
       style="stroke-width:0.264583" />
    <path
       fill="#c891f6"
       opacity="1"
       stroke="none"
       d="m -117.24545,127.7504 c 0.65523,0.26636 1.31046,0.5327 2.07174,0.8049 0.77854,5.03386 -0.11885,9.52427 -4.324,12.86828 -0.30307,0.24099 -0.6778,0.39187 -1.11145,0.5948 -0.44076,-0.61388 -0.78928,-1.23793 -1.08758,-2.03163 2.39222,-1.52466 3.87522,-3.51267 4.16681,-6.21452 0.21522,-1.99428 0.19808,-4.01364 0.28448,-6.02183 z"
       id="path108"
       style="stroke-width:0.264583" />
    <path
       fill="#b870f4"
       opacity="1"
       stroke="none"
       d="m -105.49385,111.87868 c -0.47549,-0.71006 -0.82772,-1.40525 -1.17991,-2.19347 3.64665,-0.093 7.293274,-0.093 11.026606,-0.093 0,0.73819 0,1.42047 0,2.30138 -3.241051,0 -6.482246,0 -9.846696,-0.0149 z"
       id="path118"
       style="stroke-width:0.264583" />
    <path
       fill="#b870f4"
       opacity="1"
       stroke="none"
       d="m -101.76926,99.965796 c 0.47599,0.714904 0.82894,1.410794 1.18736,2.196704 -3.10117,0.09 -6.20782,0.09 -9.41004,0.09 0,-0.73142 0,-1.40968 0,-2.305748 2.69637,0 5.398,0 8.22268,0.01902 z"
       id="path120"
       style="stroke-width:0.264583" />
    <path
       fill="#af5df2"
       opacity="1"
       stroke="none"
       d="m -91.712107,92.616856 c 0.474536,0.668486 0.825368,1.322628 1.185273,2.079863 -2.389196,0.103087 -4.787451,0.103087 -7.302133,0.103087 0,-0.596214 0,-1.308883 0,-2.197296 1.989601,0 3.991367,0 6.11686,0.01434 z"
       id="path122"
       style="stroke-width:0.264583" />
    <path
       fill="#ebebeb"
       opacity="1"
       stroke="none"
       d="m 180.14999,137.27745 c 0.37002,-0.17912 0.63444,-0.35193 0.92461,-0.43934 1.05997,-0.31933 2.16543,0.11881 2.44539,0.94208 0.26143,0.76863 -0.41085,1.9808 -1.35629,2.28792 -1.00803,0.32747 -1.75484,0.11164 -2.14555,-1.0494 -0.20977,-0.6232 -0.75055,-1.13701 0.13184,-1.74126 z"
       id="path128"
       style="stroke-width:0.264583" />
    <path
       fill="#f9f9f9"
       opacity="1"
       stroke="none"
       d="m -149.53472,116.73642 c 0.72958,0.49425 1.45653,1.09766 2.26204,1.7384 0.0786,0.0373 0.0997,0.16192 0.10374,0.22504 -1.02852,0.88567 -1.3711,0.82101 -1.95396,-0.4108 -0.21129,-0.44655 -0.28043,-0.96035 -0.41182,-1.55264 z"
       id="path132"
       style="stroke-width:0.264583" />
    <path
       fill="#fdfdfd"
       opacity="1"
       stroke="none"
       d="m 331.47414,94.051136 c -0.13301,-0.220731 -0.26602,-0.538088 -0.33229,-0.907389 0.15523,0.235636 0.24376,0.523201 0.33229,0.907389 z"
       id="path136"
       style="stroke-width:0.264583" />
    <path
       fill="#d3d3d3"
       opacity="1"
       stroke="none"
       d="m 40.804965,103.37324 c -0.05609,-0.25699 -0.05946,-0.55975 -0.06282,-0.8625 0.137943,0.0727 0.27587,0.1454 0.43195,0.30443 -0.09337,0.22831 -0.204898,0.37031 -0.36913,0.55807 z"
       id="path140"
       style="stroke-width:0.264583" />
    <path
       fill="#fdfdfd"
       opacity="1"
       stroke="none"
       d="m 331.26853,96.493703 c -0.0992,-0.112453 -0.13835,-0.263242 -0.11824,-0.452588 0.099,0.112374 0.13864,0.263316 0.11824,0.452588 z"
       id="path142"
       style="stroke-width:0.264583" />
    <path
       fill="#fdfdfd"
       opacity="1"
       stroke="none"
       d="m 267.31146,108.78044 c 3.81003,0.59756 5.42552,3.49644 3.97595,6.97724 -0.66008,1.58496 -1.94744,2.37145 -3.60638,2.43179 -2.05811,0.0749 -4.12099,0.0179 -6.2733,0.0179 0,-3.1353 0,-6.22422 0,-9.43542 1.94379,0 3.86464,0 5.90373,0.008 z"
       id="path144"
       style="stroke-width:0.264583" />
    <path
       fill="#fefefe"
       opacity="1"
       stroke="none"
       d="m 261.3177,102.07326 c 0,-2.854312 0,-5.576673 0,-8.394927 2.13386,0 4.20378,-0.163759 6.23612,0.04254 2.39739,0.243348 3.64593,2.081996 3.55669,4.739796 -0.0865,2.575141 -1.55252,4.304831 -3.92967,4.461741 -1.71,0.11286 -3.43202,0.0896 -5.14628,0.0418 -0.24561,-0.007 -0.47781,-0.49408 -0.71655,-0.89092 z"
       id="path146"
       style="stroke-width:0.264583" />
    <path
       fill="#fdfdfd"
       opacity="1"
       stroke="none"
       d="m 207.60953,95.561364 c 0.99788,2.095535 1.01727,4.179922 0.44678,6.269306 -0.58365,2.13775 -1.99824,3.28524 -4.33039,3.39397 -2.23393,0.10416 -4.47654,0.0225 -6.79865,0.0225 0,-3.86746 0,-7.669162 0,-11.730148 2.68324,0.117443 5.35554,0.107593 7.99005,0.418169 0.92863,0.109474 1.76485,1.002926 2.69221,1.626208 z"
       id="path148"
       style="stroke-width:0.264583" />
    <path
       fill="#fefefe"
       opacity="1"
       stroke="none"
       d="m 84.945894,93.71688 c 1.429596,-0.07512 2.752645,-0.120359 4.072413,-0.0727 3.847174,0.138927 6.08928,1.828141 7.050802,5.553519 1.1752,4.553671 1.227826,9.163301 -0.06739,13.702561 -1.060397,3.71632 -3.354626,5.31918 -7.198519,5.32619 -1.31109,0.002 -2.622232,2.6e-4 -3.965363,2.6e-4 0,-8.24102 0,-16.33932 0.108056,-24.509942 z"
       id="path150"
       style="stroke-width:0.264583" />
    <path
       fill="#fefeff"
       opacity="1"
       stroke="none"
       d="m -117.25644,127.62698 c -0.0754,2.13161 -0.0583,4.15097 -0.27349,6.14525 -0.29159,2.70185 -1.77459,4.68986 -4.16533,6.12092 -1.92148,0.66501 -3.74617,1.41605 -5.80569,0.8979 -2.68478,-0.67546 -4.73238,-2.10935 -5.83368,-4.68005 -0.47972,-1.11974 -0.95232,-1.53475 -2.33779,-1.29833 -4.68417,0.79928 -9.56562,-2.93733 -10.46958,-7.63729 -0.68829,-3.57862 0.4628,-6.47255 3.01227,-9.11484 1.53369,-1.36328 3.18997,-2.08069 5.04746,-2.2315 1.14087,-0.0926 1.68184,-0.5136 1.48054,-1.70215 -0.0501,-0.29574 0.002,-0.60881 0.10159,-0.90976 0.86519,0.6297 1.79146,0.89816 2.70908,0.6513 1.44713,-0.38933 2.84505,-0.961 4.26511,-1.45168 1.43694,-0.49652 1.74612,-1.25583 1.11389,-2.58874 -0.38301,-0.80744 -0.775,-1.62868 -1.00732,-2.48591 -0.55353,-2.04235 -1.39226,-3.82953 -3.51628,-4.66546 -0.22253,-0.0876 -0.50861,-0.21672 -0.7003,-0.14731 -1.44161,0.52196 -2.8371,1.19487 -4.30669,1.60861 -1.1981,0.33728 -0.84487,1.24568 -0.63015,1.75593 0.1512,0.35933 1.048,0.53969 1.61439,0.54524 0.4233,0.004 0.85877,-0.38405 1.27446,-0.62256 0.99789,-0.5725 1.77877,-0.3457 2.41917,0.51531 -0.57357,0.37388 -1.03568,0.78156 -1.57406,1.0073 -2.12706,0.89184 -2.63784,1.52314 -2.49847,3.73732 0.0458,0.7277 0.48941,1.43037 0.63157,2.14126 -3.16455,-0.08 -5.82553,0.80292 -7.91416,3.11604 -0.43854,0.04 -0.8771,0.08 -1.39957,0.0884 -0.32059,-0.25385 -0.55726,-0.47606 -0.83142,-0.87905 -0.33793,-0.97903 -0.53302,-1.84046 -0.96461,-2.56005 -0.58011,-0.96722 -0.66515,-1.85417 0.18515,-2.58842 0.5081,-0.43876 1.23519,-0.62389 2.10072,-1.03574 -0.0858,-0.50753 0,-1.6258 -0.36751,-1.8028 -0.58969,-0.28399 -1.51794,-0.0664 -2.23276,0.16073 -0.93709,0.29771 -1.80584,0.8106 -2.70398,1.23094 -0.71243,-3.47445 -0.34053,-6.77996 1.54049,-9.945415 1.5835,-2.31525 3.53126,-4.108114 6.03211,-5.243867 0.62967,-0.285965 0.69784,-0.647796 0.4117,-1.2504 -1.21559,-2.559928 -1.45576,-5.209056 -0.62687,-8.043492 1.1359,-2.807364 2.81155,-5.033391 5.52677,-6.334757 0.27611,-0.13234 0.55255,-0.267997 0.84013,-0.370406 0.11112,-0.03957 0.25369,0.0092 0.49552,0.02516 -0.18798,2.382324 -0.0158,4.701378 1.3762,6.908114 0.47134,-0.230121 1.02258,-0.360161 1.35201,-0.703201 0.27338,-0.284681 0.51126,-0.917356 0.37711,-1.228916 -0.91508,-2.125186 -0.94825,-4.242416 -0.20318,-6.505069 1.38068,-3.038309 3.6096,-4.798439 6.87858,-5.286248 4.37058,-0.65219 9.05755,2.718091 9.29226,7.127221 0.27995,5.258996 0.19033,10.537679 0.26069,15.807827 0.004,0.263753 0.006,0.527521 0.023,0.914448 0.005,5.509131 -0.004,10.895091 -2.6e-4,16.404361 0.005,5.50901 -0.002,10.89472 0.001,16.40384 m -7.06796,-26.00267 c 2.76624,-1.49201 3.94135,-4.473634 3.07483,-7.348176 -0.62582,-2.076042 -3.80433,-4.512926 -5.74755,-3.885485 0,0.675759 0,1.366504 0,2.06819 0.2394,0.101446 0.43324,0.204864 0.63944,0.267626 1.81445,0.552196 2.98216,1.934887 2.9793,3.53927 -0.003,1.694939 -1.11702,2.960187 -2.99726,3.509484 -0.28245,0.0825 -0.47716,0.465331 -0.90438,0.719361 -0.24025,0.0484 -0.48048,0.0968 -0.76036,0.15312 1.28284,3.27439 2.53246,6.46395 3.80234,9.70526 0.57245,-0.24476 0.96382,-0.55385 1.35436,-0.55282 1.23793,0.003 1.23914,-0.8318 1.09424,-1.61834 -0.14094,-0.76502 -0.47412,-1.50296 -0.78367,-2.22681 -0.60361,-1.4115 -1.24965,-2.80486 -1.75129,-4.33068 m -8.50937,18.42406 c -1.04095,3.91073 1.41659,7.2343 5.67792,7.58027 0,-0.8022 0,-1.5973 0,-2.36857 -2.03593,-0.43195 -3.21191,-1.50314 -3.36037,-2.98508 -0.18391,-1.83578 0.54353,-3.20987 2.05895,-3.88927 1.59619,-0.71561 1.6559,-0.84612 1.23548,-2.70055 -2.1045,-0.29637 -5.0414,1.72739 -5.61198,4.3632 m 1.32978,-42.828655 c -0.11335,0.661177 -0.22669,1.322353 -0.35279,2.057844 0.9096,0 1.59959,0 2.27314,0 0.67316,-2.382218 1.90517,-3.517791 3.84624,-3.587636 1.59316,-0.05733 2.8457,1.144262 3.7045,3.585085 0.71405,0 1.44442,0 2.24192,0 -0.0606,-2.022985 -0.77136,-3.636502 -2.38358,-4.793175 -3.31697,-2.379747 -7.13961,-1.327277 -9.32943,2.737882 m -7.8595,21.637812 c -3.37315,2.419893 -3.91301,6.789193 -1.14122,9.236353 1.669,-1.17348 1.669,-1.17348 0.97082,-2.85074 -0.89867,-2.15888 0.67736,-4.71981 3.02795,-4.73143 1.00128,-0.005 2.00459,0.39457 2.93513,0.59483 0.49945,-0.3967 1.04048,-0.82644 1.56608,-1.243908 -1.69366,-2.036342 -4.65485,-2.436019 -7.35876,-1.005105 m -0.15266,33.090283 c 0.90266,0.21735 1.80532,0.43468 2.72123,0.65523 0.38312,-2.2086 0.37352,-2.18051 -1.41778,-2.79241 -1.49646,-0.51119 -2.57153,-1.52224 -3.05514,-3.04439 -0.5812,-1.82933 -0.70178,-1.92406 -2.60572,-1.42676 -0.26202,2.54572 1.38467,5.12564 4.35741,6.60833 m 16.95454,2.17674 c -0.9265,0.77678 -1.85299,1.55354 -2.77949,2.33032 -0.10254,-0.0944 -0.20508,-0.18885 -0.30762,-0.28327 0,0.76108 0,1.52215 0,2.26999 2.84368,0.38453 6.12678,-2.8197 5.79467,-5.8445 -0.75995,0 -1.52476,0 -2.2676,0 -0.13326,0.50133 -0.24438,0.9193 -0.43996,1.52746 m -5.8244,-35.612137 c 0.52642,1.113538 1.25984,0.274378 1.66687,0.01058 0.45071,-0.292084 0.88994,-1.001586 0.8692,-1.510363 -0.0213,-0.521441 -0.51264,-1.326415 -0.96273,-1.462226 -0.83704,-0.252584 -1.86075,-0.276955 -2.43072,0.711068 -0.55351,0.959469 0.11396,1.535459 0.85738,2.250927 z"
       id="path152"
       style="stroke-width:0.264583" />
    <path
       fill="#cb97f6"
       opacity="1"
       stroke="none"
       d="m -136.59428,113.21297 c -0.005,0.30511 -0.0575,0.61818 -0.007,0.91392 0.2013,1.18855 -0.33967,1.60951 -1.48055,1.70215 -1.85748,0.15081 -3.51376,0.86822 -5.00143,2.15767 -0.50874,-0.50536 -0.92978,-1.04133 -1.4435,-1.61512 1.99594,-2.35093 4.65692,-3.2338 7.82727,-3.16374 0.12535,-0.007 0.10565,0.005 0.10565,0.005 z"
       id="path154"
       style="stroke-width:0.264583" />
    <path
       fill="#f9f9f9"
       opacity="1"
       stroke="none"
       d="m -86.513394,130.29962 c 0.86256,0.463 0.901076,1.14331 0.403358,1.67049 -0.301644,0.3195 -1.073463,0.53796 -1.426285,0.36871 -0.344707,-0.16537 -0.716608,-1.10455 -0.560543,-1.30777 0.310525,-0.40439 0.975206,-0.53681 1.58347,-0.73143 z"
       id="path158"
       style="stroke-width:0.264583" />
    <path
       fill="#fdfdfd"
       opacity="1"
       stroke="none"
       d="m -158.73178,114.26083 c 0.56666,0.3024 1.02961,0.60779 1.49256,0.91318 -0.41233,0.31333 -0.79917,0.67124 -1.24488,0.92623 -0.3726,0.21315 -0.80495,0.35394 -1.22839,0.43442 -0.26475,0.0503 -0.70286,0.0216 -0.80791,-0.13875 -0.12239,-0.18686 -0.0734,-0.66281 0.0893,-0.82623 0.48231,-0.48463 1.05705,-0.87727 1.69936,-1.30885 z"
       id="path172"
       style="stroke-width:0.264583" />
    <path
       fill="#fdfdfd"
       opacity="1"
       stroke="none"
       d="m -189.92931,130.01456 c 0.67893,-0.49154 1.31458,-0.89207 2.15528,-1.42179 0.30146,0.95156 0.5209,1.64422 0.74034,2.33688 -0.75508,0.15198 -1.51411,0.41663 -2.26296,0.39043 -0.23917,-0.008 -0.45139,-0.78784 -0.63266,-1.30552 z"
       id="path182"
       style="stroke-width:0.264583" />
    <path
       fill="#f9f9f9"
       opacity="1"
       stroke="none"
       d="m -83.286234,101.63544 c 0.191463,-0.61558 0.32235,-1.28247 0.727435,-1.60571 0.193998,-0.154797 1.082582,0.22114 1.329343,0.58104 0.193255,0.28187 0.03685,1.04315 -0.235159,1.35545 -0.602726,0.69205 -1.236416,0.29959 -1.821619,-0.33078 z"
       id="path188"
       style="stroke-width:0.264583" />
    <path
       fill="#fefefe"
       opacity="1"
       stroke="none"
       d="m 325.87352,91.767224 c 2.32169,0.596929 3.43606,3.497807 2.00287,5.156557 -0.30428,0.3522 -1.21886,0.530209 -1.65201,0.337746 -0.70252,-0.312127 -1.57501,-0.897748 -1.7671,-1.547757 -0.28215,-0.954956 -0.13539,-2.088552 0.0563,-3.10301 0.0657,-0.34775 0.81556,-0.566243 1.35994,-0.843536 z"
       id="path190"
       style="stroke-width:0.264583" />
    <path
       fill="#fefeff"
       opacity="1"
       stroke="none"
       d="m -88.082823,80.016795 c 0.535102,-0.240329 1.041321,-0.521438 1.511245,-0.470117 0.235717,0.02574 0.654158,0.77189 0.55318,0.9902 -0.212254,0.458894 -0.694095,1.079876 -1.098955,1.105673 -0.965832,0.06155 -1.184103,-0.672939 -0.96547,-1.625756 z"
       id="path194"
       style="stroke-width:0.264583" />
    <path
       fill="#f9f9f9"
       opacity="1"
       stroke="none"
       d="m -81.24931,110.03832 c -0.06969,0.60674 -0.09794,1.21369 -0.391716,1.63584 -0.141173,0.20287 -0.911669,0.22267 -1.166698,0.0262 -0.311642,-0.2401 -0.554117,-0.8085 -0.520941,-1.20965 0.07688,-0.92942 0.922586,-1.12119 2.079355,-0.4524 z"
       id="path198"
       style="stroke-width:0.264583" />
    <path
       fill="#cb97f6"
       opacity="1"
       stroke="none"
       d="m -132.79552,119.94944 c 0.53232,-2.53689 3.46922,-4.56065 5.57372,-4.26427 0.42043,1.85442 0.36072,1.98493 -1.23548,2.70054 -1.51542,0.6794 -2.24285,2.0535 -2.05894,3.88928 0.14845,1.48193 1.32443,2.55312 3.36036,2.98507 0,0.77127 0,1.56638 0,2.36857 -4.26133,-0.34597 -6.71887,-3.66954 -5.63966,-7.67919 z"
       id="path202"
       style="stroke-width:0.264583" />
    <path
       fill="#bb75f4"
       opacity="1"
       stroke="none"
       d="m -127.0881,100.48444 c 0.23529,-0.2439 0.43001,-0.626721 0.71245,-0.709226 1.88025,-0.549296 2.99425,-1.814544 2.99727,-3.509484 0.003,-1.604383 -1.16485,-2.987074 -2.9793,-3.53927 -0.20621,-0.06276 -0.40004,-0.16618 -0.63945,-0.267626 0,-0.701686 0,-1.392431 0,-2.06819 1.94323,-0.627441 5.12173,1.809443 5.74756,3.885486 0.86651,2.874541 -0.30859,5.85616 -3.23499,7.43851 -0.89842,0.27853 -1.63672,0.46673 -2.48161,0.6821 -0.0504,-0.7899 -0.0861,-1.3511 -0.12193,-1.9123 z"
       id="path204"
       style="stroke-width:0.264583" />
    <path
       fill="#b870f4"
       opacity="1"
       stroke="none"
       d="m -131.47339,77.120525 c 2.15921,-3.965974 5.98185,-5.018444 9.29883,-2.638697 1.61221,1.156674 2.32301,2.77019 2.38357,4.793176 -0.7975,0 -1.52787,0 -2.24192,0 -0.85879,-2.440824 -2.11133,-3.642413 -3.70449,-3.585086 -1.94107,0.06985 -3.17309,1.205418 -3.84625,3.587636 -0.67354,0 -1.36354,0 -2.27313,0 0.12609,-0.735491 0.23944,-1.396666 0.38339,-2.157029 z"
       id="path206"
       style="stroke-width:0.264583" />
    <path
       fill="#c891f6"
       opacity="1"
       stroke="none"
       d="m -139.27801,98.8085 c 2.61842,-1.381892 5.57962,-0.982215 7.27327,1.054127 -0.5256,0.417463 -1.06663,0.847203 -1.56608,1.243903 -0.93054,-0.20026 -1.93384,-0.59978 -2.93513,-0.59482 -2.35059,0.0116 -3.92662,2.57254 -3.02795,4.73142 0.69819,1.67726 0.69819,1.67726 -0.97081,2.85075 -2.7718,-2.44717 -2.23194,-6.81647 1.2267,-9.28538 z"
       id="path208"
       style="stroke-width:0.264583" />
    <path
       fill="#d1a4f7"
       opacity="1"
       stroke="none"
       d="m -139.61045,131.90934 c -2.87844,-1.44423 -4.52514,-4.02414 -4.26311,-6.56987 1.90393,-0.4973 2.02452,-0.40257 2.60572,1.42677 0.4836,1.52215 1.55867,2.5332 3.05513,3.04438 1.7913,0.61191 1.8009,0.58381 1.41778,2.79241 -0.9159,-0.22055 -1.81857,-0.43788 -2.81552,-0.69369 z"
       id="path212"
       style="stroke-width:0.264583" />
    <path
       fill="#cb97f6"
       opacity="1"
       stroke="none"
       d="m -122.51937,134.02946 c 0.15334,-0.51308 0.26445,-0.93105 0.39771,-1.43237 0.74285,0 1.50765,0 2.2676,0 0.33211,3.0248 -2.95099,6.22903 -5.79466,5.84449 0,-0.74784 0,-1.50891 0,-2.26998 0.10254,0.0944 0.20507,0.18884 0.30761,0.28326 0.9265,-0.77678 1.85299,-1.55354 2.82174,-2.4254 z"
       id="path214"
       style="stroke-width:0.264583" />
    <path
       fill="#fdfdfd"
       opacity="1"
       stroke="none"
       d="m -133.89421,109.25698 c 0.251,-0.0986 0.40178,-0.18457 0.56273,-0.24209 0.40555,-0.14496 0.81567,-0.27708 1.22396,-0.41434 0.16944,0.5661 0.48374,1.14155 0.44808,1.69444 -0.0182,0.2824 -0.63718,0.58329 -1.03548,0.76323 -0.25278,0.11421 -0.6311,0.10389 -0.89586,10e-4 -0.3763,-0.14562 -0.95768,-0.40133 -0.98341,-0.65709 -0.0352,-0.35018 0.36869,-0.74457 0.67998,-1.14559 z"
       id="path218"
       style="stroke-width:0.264583" />
  </g>
</svg>
